<svg width="64" height="64" viewBox="0 0 64 64" fill="none" xmlns="http://www.w3.org/2000/svg">
<g filter="url(#filter0_d_4_3061)">
<circle cx="32" cy="31" r="28" fill="#4C9EEB"/>
</g>
<path d="M25.5257 42.85C27.4923 29.4522 38.0363 21.7605 43.4505 21.6686C43.5057 21.6677 43.548 21.7157 43.5477 21.771C43.5121 28.176 40.1533 28.4858 38.3866 28.6488C37.9784 28.6864 37.6551 28.7162 37.4776 28.8116C36.2811 29.0931 35.4541 29.9087 35.1022 30.3248C34.9435 30.5124 36.315 30.733 38.7216 30.5223C38.8094 30.5146 38.8629 30.6168 38.8066 30.6847C36.8139 33.0897 34.595 33.5749 33.2042 33.8791C32.7518 33.978 32.387 34.0578 32.1461 34.1782C30.4931 35.7975 27.6996 39.5278 25.7094 42.917C25.6539 43.0114 25.5098 42.9584 25.5257 42.85Z" fill="white"/>
<path d="M24.5759 22.4241C24.9901 22.4241 25.3259 22.7599 25.3259 23.1741V26.6741H28.8259C29.2401 26.6741 29.5759 27.0099 29.5759 27.4241C29.5759 27.8383 29.2401 28.1741 28.8259 28.1741H25.3259V31.6741C25.3259 32.0883 24.9901 32.4241 24.5759 32.4241C24.1617 32.4241 23.8259 32.0883 23.8259 31.6741V28.1741H20.3259C19.9117 28.1741 19.5759 27.8383 19.5759 27.4241C19.5759 27.0099 19.9117 26.6741 20.3259 26.6741H23.8259V23.1741C23.8259 22.7599 24.1617 22.4241 24.5759 22.4241Z" fill="white"/>
<defs>
<filter id="filter0_d_4_3061" x="0" y="0" width="64" height="64" filterUnits="userSpaceOnUse" color-interpolation-filters="sRGB">
<feFlood flood-opacity="0" result="BackgroundImageFix"/>
<feColorMatrix in="SourceAlpha" type="matrix" values="0 0 0 0 0 0 0 0 0 0 0 0 0 0 0 0 0 0 127 0" result="hardAlpha"/>
<feOffset dy="1"/>
<feGaussianBlur stdDeviation="2"/>
<feColorMatrix type="matrix" values="0 0 0 0 0 0 0 0 0 0 0 0 0 0 0 0 0 0 0.25 0"/>
<feBlend mode="normal" in2="BackgroundImageFix" result="effect1_dropShadow_4_3061"/>
<feBlend mode="normal" in="SourceGraphic" in2="effect1_dropShadow_4_3061" result="shape"/>
</filter>
</defs>
</svg>
