<svg width="20" height="20" viewBox="0 0 20 20" fill="none" xmlns="http://www.w3.org/2000/svg">
<path fill-rule="evenodd" clip-rule="evenodd" d="M16.8264 8.51762C16.8264 10.301 17.3033 12.0519 18.2077 13.5889L19.183 15.2464C19.3791 15.5798 19.1388 16 18.7521 16H14.0635C14.0073 16.3327 13.9137 16.6588 13.7839 16.9721C13.5578 17.518 13.2263 18.0141 12.8084 18.432C12.3906 18.8498 11.8945 19.1813 11.3485 19.4075C10.8026 19.6336 10.2174 19.75 9.62646 19.75C9.03552 19.75 8.45035 19.6336 7.90439 19.4075C7.35842 19.1813 6.86235 18.8498 6.44448 18.432C6.02662 18.0141 5.69515 17.518 5.46901 16.9721C5.33926 16.6588 5.24565 16.3327 5.1894 16H0.500759C0.114023 16 -0.126301 15.5798 0.0698239 15.2464L1.04512 13.5889C1.94952 12.0519 2.42642 10.301 2.42642 8.51762V6.62069C2.42642 2.96418 5.64997 0 9.62642 0C13.6029 0 16.8264 2.96418 16.8264 6.62069V8.51762ZM3.92642 6.62069C3.92642 3.90858 6.35747 1.5 9.62642 1.5C12.8954 1.5 15.3264 3.90858 15.3264 6.62069V8.51762C15.3264 10.5685 15.8749 12.582 16.9149 14.3496L17.0034 14.5H2.24943L2.33793 14.3496C3.37798 12.582 3.92642 10.5685 3.92642 8.51762V6.62069ZM6.72173 16C6.75667 16.1353 6.8011 16.2683 6.85483 16.3981C7.00559 16.762 7.22657 17.0927 7.50514 17.3713C7.78372 17.6499 8.11444 17.8709 8.47841 18.0216C8.84239 18.1724 9.2325 18.25 9.62646 18.25C10.0204 18.25 10.4105 18.1724 10.7745 18.0216C11.1385 17.8709 11.4692 17.6499 11.7478 17.3713C12.0264 17.0927 12.2473 16.762 12.3981 16.3981C12.4518 16.2683 12.4963 16.1353 12.5312 16H6.72173Z" fill="#687684"/>
</svg>
