<svg width="23" height="21" viewBox="0 0 23 21" fill="none" xmlns="http://www.w3.org/2000/svg">
<path fill-rule="evenodd" clip-rule="evenodd" d="M15.2501 10.4465C15.2501 12.6556 13.4593 14.4465 11.2501 14.4465C9.04099 14.4465 7.25013 12.6556 7.25013 10.4465C7.25013 8.23736 9.04099 6.4465 11.2501 6.4465C13.4593 6.4465 15.2501 8.23736 15.2501 10.4465ZM13.7501 10.4465C13.7501 11.8272 12.6308 12.9465 11.2501 12.9465C9.86942 12.9465 8.75013 11.8272 8.75013 10.4465C8.75013 9.06579 9.86942 7.9465 11.2501 7.9465C12.6308 7.9465 13.7501 9.06579 13.7501 10.4465Z" fill="#687684"/>
<path fill-rule="evenodd" clip-rule="evenodd" d="M1.12223 7.09768L2.20444 6.47927L3.64991 16.9589C3.90584 18.8144 5.49167 20.1965 7.36474 20.1965H15.1355C17.0086 20.1965 18.5944 18.8144 18.8503 16.9589L20.2958 6.47927L21.378 7.09768C21.7377 7.30319 22.1958 7.17824 22.4013 6.8186C22.6068 6.45896 22.4819 6.00082 22.1222 5.79532L12.6145 0.362331C11.7691 -0.120777 10.7312 -0.120777 9.88575 0.362331L0.378024 5.79532C0.0183861 6.00082 -0.106561 6.45896 0.098946 6.8186C0.304453 7.17824 0.762594 7.30319 1.12223 7.09768ZM11.8703 1.6647C11.486 1.4451 11.0142 1.4451 10.63 1.6647L3.60802 5.67723L5.13584 16.7539C5.2894 17.8672 6.2409 18.6965 7.36474 18.6965H15.1355C16.2594 18.6965 17.2109 17.8672 17.3644 16.7539L18.8922 5.67723L11.8703 1.6647Z" fill="#687684"/>
</svg>
