<svg width="32" height="32" viewBox="0 0 32 32" fill="none" xmlns="http://www.w3.org/2000/svg">
<g clip-path="url(#clip0_1321_291)">
<path d="M31.9008 8.63673C31.9691 8.51726 32.0021 8.41486 32 8.32953C31.9936 8.24846 31.9605 8.20046 31.9008 8.18553C31.7515 8.15353 31.5221 8.15886 31.2128 8.20153C30.9888 8.2314 30.6741 8.289 30.2688 8.37433C29.8955 8.45327 29.3749 8.45113 28.7072 8.36793C28.0096 8.28046 27.4699 8.13966 27.088 7.94553C26.3051 4.74553 24.2891 3.1914 21.04 3.28313C19.7472 3.31726 18.5163 3.53166 17.3472 3.92633C16.9717 4.01593 16.5952 4.03833 16.2176 3.99353C15.8464 3.9466 15.4549 3.8314 15.0432 3.64793C15.2181 4.3114 15.5584 4.81486 16.064 5.15833C15.7696 5.14766 15.4709 5.10713 15.168 5.03673C14.8523 4.95993 14.5536 4.8554 14.272 4.72313C14.4448 5.50606 14.8907 6.04793 15.6096 6.34873C14.8608 7.537 14.576 8.8266 14.7552 10.2175C14.9365 11.6149 15.5851 13.1039 16.7008 14.6847C16.3125 15.0154 15.552 15.2629 14.4192 15.4271C13.1691 15.6063 11.8272 15.6202 10.3936 15.4687C8.70187 15.2853 7.1136 14.8853 5.6288 14.2687C3.88587 13.5413 2.38933 12.5471 1.1392 11.2863C0.846933 13.9743 1.35147 15.8911 2.6528 17.0367C2.01493 16.8511 1.13067 16.4469 0 15.8239C0.558933 19.3397 2.50027 21.4378 5.824 22.1183C4.50773 22.3167 3.22667 22.1514 1.9808 21.6223C3.13707 24.4981 5.9456 26.6709 10.4064 28.1407C17.7152 29.6469 22.9035 28.2346 25.9712 23.9039C27.9488 20.529 27.4112 17.0261 24.3584 13.3951C24.9451 13.2053 25.4165 12.9663 25.7728 12.6783H28.8448C29.632 12.4821 29.9787 12.2581 29.8848 12.0063C29.3899 11.633 28.8117 11.4261 28.1504 11.3855L28.896 12.0575C27.6203 11.9658 26.4971 11.4527 25.5264 10.5183C26.9088 10.7722 28.2133 10.7125 29.44 10.3391C30.0139 10.1642 30.512 9.93166 30.9344 9.64153C31.3632 9.345 31.6853 9.01006 31.9008 8.63673ZM23.392 7.28313C23.6053 7.28313 23.7867 7.39513 23.936 7.61913C24.0853 7.841 24.16 8.11086 24.16 8.42873C24.16 8.74446 24.0853 9.01433 23.936 9.23833C23.7867 9.4602 23.6053 9.57113 23.392 9.57113C23.1787 9.57113 22.9973 9.4602 22.848 9.23833C22.6987 9.01433 22.624 8.74446 22.624 8.42873C22.624 8.11086 22.6987 7.841 22.848 7.61913C22.9973 7.39513 23.1787 7.28313 23.392 7.28313ZM19.6256 18.4543C19.6107 20.9503 18.512 22.6602 16.3296 23.5839C13.7888 24.6975 10.8651 24.8042 7.5584 23.9039C13.9968 24.4437 18.0192 22.6271 19.6256 18.4543Z" fill="#1DA1F2"/>
</g>
<defs>
<clipPath id="clip0_1321_291">
<rect width="32" height="32" fill="white"/>
</clipPath>
</defs>
</svg>
