<svg width="22" height="22" viewBox="0 0 22 22" fill="none" xmlns="http://www.w3.org/2000/svg">
<path fill-rule="evenodd" clip-rule="evenodd" d="M10.75 0H10C9.0335 0 8.25 0.783502 8.25 1.75V2.54168C8.25 3.34349 7.28057 3.74504 6.7136 3.17807L6.15381 2.61828C5.47039 1.93487 4.36235 1.93487 3.67894 2.61828L2.61828 3.67895C1.93486 4.36236 1.93486 5.4704 2.61828 6.15382L3.17806 6.7136C3.74503 7.28057 3.34348 8.25 2.54167 8.25H1.75C0.783502 8.25 0 9.0335 0 10V11.5C0 12.4665 0.783502 13.25 1.75 13.25H2.54168C3.34349 13.25 3.74504 14.2194 3.17807 14.7864L2.61827 15.3462C1.93485 16.0296 1.93485 17.1377 2.61827 17.8211L3.67893 18.8817C4.36235 19.5652 5.47039 19.5652 6.1538 18.8817L6.7136 18.3219C7.28057 17.755 8.25 18.1565 8.25 18.9583V19.75C8.25 20.7165 9.0335 21.5 10 21.5H10.75H11.5C12.4665 21.5 13.25 20.7165 13.25 19.75V18.9583C13.25 18.1565 14.2194 17.755 14.7864 18.3219L15.3462 18.8817C16.0296 19.5652 17.1377 19.5652 17.8211 18.8817L18.8817 17.8211C19.5651 17.1377 19.5651 16.0296 18.8817 15.3462L18.3219 14.7864C17.755 14.2194 18.1565 13.25 18.9583 13.25H19.75C20.7165 13.25 21.5 12.4665 21.5 11.5V10C21.5 9.0335 20.7165 8.25 19.75 8.25H18.9583C18.1565 8.25 17.755 7.28057 18.3219 6.7136L18.8817 6.15382C19.5651 5.4704 19.5651 4.36236 18.8817 3.67895L17.8211 2.61828C17.1376 1.93487 16.0296 1.93487 15.3462 2.61828L14.7864 3.17807C14.2194 3.74504 13.25 3.34349 13.25 2.54168V1.75C13.25 0.783502 12.4665 0 11.5 0H10.75ZM11.5 20H10.75H10C9.86193 20 9.75 19.8881 9.75 19.75L9.58033 18.3596C9.4944 17.6554 9.05516 17.0437 8.41535 16.7372C7.7018 16.3954 6.85605 16.4884 6.23386 16.9771L5.25 17.75C5.15237 17.8476 4.83722 17.9187 4.73959 17.8211L3.67893 16.7604C3.5813 16.6628 3.5813 16.5045 3.67893 16.4069L4.21942 15.8369C4.84623 15.1758 5.02544 14.2079 4.67683 13.3662C4.37911 12.6475 3.73925 12.1272 2.9749 11.9822L1.75 11.75C1.61193 11.75 1.5 11.6381 1.5 11.5V10C1.5 9.86193 1.61193 9.75 1.75 9.75H2.87779C3.70842 9.75 4.45726 9.24964 4.77513 8.48224C5.093 7.71484 4.93617 6.81231 4.44671 6.14121C4.27613 5.90734 4.11015 5.67348 3.97148 5.47572C3.75692 5.16972 3.789 4.75662 4.04627 4.48554C4.17892 4.34577 4.32592 4.19186 4.46349 4.04997C4.72045 3.78495 5.12416 3.75472 5.42689 3.96596C5.66322 4.13087 5.9533 4.33357 6.23676 4.53238C6.86822 4.97528 7.68461 5.06998 8.39719 4.77481C9.23534 4.42763 9.77689 3.60428 9.76373 2.69717L9.75 1.75C9.75 1.61193 9.86192 1.5 10 1.5L10.75 1.5L11.5 1.5C11.6381 1.5 11.75 1.61193 11.75 1.75L11.7363 2.69717C11.7231 3.60428 12.2647 4.42763 13.1028 4.77481C13.8154 5.06998 14.6318 4.97528 15.2632 4.53238C15.5467 4.33357 15.8368 4.13087 16.0731 3.96596C16.3758 3.75472 16.7795 3.78495 17.0365 4.04997C17.1741 4.19186 17.3211 4.34577 17.4537 4.48554C17.711 4.75662 17.7431 5.16972 17.5285 5.47572C17.3898 5.67348 17.2239 5.90734 17.0533 6.14121C16.5638 6.81231 16.407 7.71484 16.7249 8.48224C17.0427 9.24964 17.7916 9.75 18.6222 9.75H19.75C19.8881 9.75 20 9.86193 20 10V11.5C20 11.6381 19.8881 11.75 19.75 11.75L18.5251 11.9822C17.7607 12.1272 17.1209 12.6475 16.8232 13.3662C16.4746 14.2079 16.6538 15.1758 17.2806 15.8369L17.8211 16.4069C17.9187 16.5045 17.9187 16.6628 17.8211 16.7604L16.7604 17.8211C16.6628 17.9187 16.3476 17.8476 16.25 17.75L15.2661 16.9771C14.6439 16.4884 13.7982 16.3954 13.0847 16.7372C12.4448 17.0437 12.0056 17.6554 11.9197 18.3596L11.75 19.75C11.75 19.8881 11.6381 20 11.5 20ZM13.35 10.75C13.35 12.1307 12.2307 13.25 10.85 13.25C9.46929 13.25 8.35001 12.1307 8.35001 10.75C8.35001 9.36929 9.46929 8.25 10.85 8.25C12.2307 8.25 13.35 9.36929 13.35 10.75ZM14.85 10.75C14.85 12.9591 13.0591 14.75 10.85 14.75C8.64087 14.75 6.85001 12.9591 6.85001 10.75C6.85001 8.54086 8.64087 6.75 10.85 6.75C13.0591 6.75 14.85 8.54086 14.85 10.75Z" fill="#4C9EEB"/>
</svg>
